<?xml version="1.0" encoding="UTF-8" standalone="no"?>
<!DOCTYPE svg PUBLIC "-//W3C//DTD SVG 1.1//EN"
 "http://www.w3.org/Graphics/SVG/1.1/DTD/svg11.dtd">
<!-- Generated by graphviz version 13.1.0 (20250701.0955)
 -->
<!-- Pages: 1 -->
<svg width="3600pt" height="591pt"
 viewBox="0.00 0.00 3600.00 591.00" xmlns="http://www.w3.org/2000/svg" xmlns:xlink="http://www.w3.org/1999/xlink">
<g id="graph0" class="graph" transform="scale(2.43867 2.43867) rotate(0) translate(4 238.5)">
<polygon fill="white" stroke="none" points="-4,4 -4,-238.5 1472.21,-238.5 1472.21,4 -4,4"/>
<!-- Q -->
<g id="node1" class="node">
<title>Q</title>
<polygon fill="none" stroke="black" points="728.21,-234.5 543.4,-216.5 728.21,-198.5 913.02,-216.5 728.21,-234.5"/>
<text xml:space="preserve" text-anchor="middle" x="728.21" y="-211.45" font-family="Times,serif" font-size="14.00">What is your research question?</text>
</g>
<!-- Q1 -->
<g id="node2" class="node">
<title>Q1</title>
<polygon fill="none" stroke="black" points="215.21,-162.5 0,-144.5 215.21,-126.5 430.42,-144.5 215.21,-162.5"/>
<text xml:space="preserve" text-anchor="middle" x="215.21" y="-139.45" font-family="Times,serif" font-size="14.00">Do you want to find discrete clusters?</text>
</g>
<!-- Q&#45;&gt;Q1 -->
<g id="edge1" class="edge">
<title>Q&#45;&gt;Q1</title>
<path fill="none" stroke="black" d="M653.62,-205.32C561.44,-192.74 404.68,-171.35 305.71,-157.85"/>
<polygon fill="black" stroke="black" points="306.42,-154.41 296.04,-156.53 305.47,-161.35 306.42,-154.41"/>
</g>
<!-- Q2 -->
<g id="node3" class="node">
<title>Q2</title>
<polygon fill="none" stroke="black" points="728.21,-162.5 448.58,-144.5 728.21,-126.5 1007.84,-144.5 728.21,-162.5"/>
<text xml:space="preserve" text-anchor="middle" x="728.21" y="-139.45" font-family="Times,serif" font-size="14.00">Do you want to test randomness (overall pattern)?</text>
</g>
<!-- Q&#45;&gt;Q2 -->
<g id="edge2" class="edge">
<title>Q&#45;&gt;Q2</title>
<path fill="none" stroke="black" d="M728.21,-198.2C728.21,-190.91 728.21,-182.23 728.21,-174.04"/>
<polygon fill="black" stroke="black" points="731.71,-174.12 728.21,-164.12 724.71,-174.12 731.71,-174.12"/>
</g>
<!-- Q3 -->
<g id="node4" class="node">
<title>Q3</title>
<polygon fill="none" stroke="black" points="1247.21,-162.5 1026.21,-144.5 1247.21,-126.5 1468.21,-144.5 1247.21,-162.5"/>
<text xml:space="preserve" text-anchor="middle" x="1247.21" y="-139.45" font-family="Times,serif" font-size="14.00">Do you want to map density variation?</text>
</g>
<!-- Q&#45;&gt;Q3 -->
<g id="edge3" class="edge">
<title>Q&#45;&gt;Q3</title>
<path fill="none" stroke="black" d="M803.4,-205.36C896.45,-192.81 1054.86,-171.44 1155.11,-157.92"/>
<polygon fill="black" stroke="black" points="1155.49,-161.4 1164.93,-156.6 1154.56,-154.47 1155.49,-161.4"/>
</g>
<!-- A1 -->
<g id="node5" class="node">
<title>A1</title>
<polygon fill="none" stroke="black" points="295.21,-90.5 135.21,-90.5 135.21,0 295.21,0 295.21,-90.5"/>
<text xml:space="preserve" text-anchor="middle" x="215.21" y="-73.2" font-family="Times,serif" font-size="14.00">Use clustering algorithms:</text>
<text xml:space="preserve" text-anchor="middle" x="215.21" y="-56.7" font-family="Times,serif" font-size="14.00">&#45; DBSCAN</text>
<text xml:space="preserve" text-anchor="middle" x="215.21" y="-40.2" font-family="Times,serif" font-size="14.00">&#45; HDBSCAN</text>
<text xml:space="preserve" text-anchor="middle" x="215.21" y="-23.7" font-family="Times,serif" font-size="14.00">&#45; K&#45;Means</text>
<text xml:space="preserve" text-anchor="middle" x="215.21" y="-7.2" font-family="Times,serif" font-size="14.00">&#45; Ripley&#39;s K&#45;function</text>
</g>
<!-- Q1&#45;&gt;A1 -->
<g id="edge4" class="edge">
<title>Q1&#45;&gt;A1</title>
<path fill="none" stroke="black" d="M215.21,-126.11C215.21,-119.2 215.21,-110.82 215.21,-102.13"/>
<polygon fill="black" stroke="black" points="218.71,-102.14 215.21,-92.14 211.71,-102.14 218.71,-102.14"/>
</g>
<!-- A2 -->
<g id="node6" class="node">
<title>A2</title>
<polygon fill="none" stroke="black" points="823.96,-82.25 632.46,-82.25 632.46,-8.25 823.96,-8.25 823.96,-82.25"/>
<text xml:space="preserve" text-anchor="middle" x="728.21" y="-64.95" font-family="Times,serif" font-size="14.00">Use dispersion tests:</text>
<text xml:space="preserve" text-anchor="middle" x="728.21" y="-48.45" font-family="Times,serif" font-size="14.00">&#45; Nearest Neighbor Index (NNI)</text>
<text xml:space="preserve" text-anchor="middle" x="728.21" y="-31.95" font-family="Times,serif" font-size="14.00">&#45; Quadrat Analysis</text>
<text xml:space="preserve" text-anchor="middle" x="728.21" y="-15.45" font-family="Times,serif" font-size="14.00">&#45; Global Moran&#39;s I</text>
</g>
<!-- Q2&#45;&gt;A2 -->
<g id="edge5" class="edge">
<title>Q2&#45;&gt;A2</title>
<path fill="none" stroke="black" d="M728.21,-126.11C728.21,-117.02 728.21,-105.39 728.21,-93.84"/>
<polygon fill="black" stroke="black" points="731.71,-93.93 728.21,-83.93 724.71,-93.93 731.71,-93.93"/>
</g>
<!-- A3 -->
<g id="node7" class="node">
<title>A3</title>
<polygon fill="none" stroke="black" points="1352.34,-82.25 1142.09,-82.25 1142.09,-8.25 1352.34,-8.25 1352.34,-82.25"/>
<text xml:space="preserve" text-anchor="middle" x="1247.21" y="-64.95" font-family="Times,serif" font-size="14.00">Use density estimation:</text>
<text xml:space="preserve" text-anchor="middle" x="1247.21" y="-48.45" font-family="Times,serif" font-size="14.00">&#45; Kernel Density Estimation (KDE)</text>
<text xml:space="preserve" text-anchor="middle" x="1247.21" y="-31.95" font-family="Times,serif" font-size="14.00">&#45; Hexagonal binning (H3)</text>
<text xml:space="preserve" text-anchor="middle" x="1247.21" y="-15.45" font-family="Times,serif" font-size="14.00">&#45; GWR (if covariates)</text>
</g>
<!-- Q3&#45;&gt;A3 -->
<g id="edge6" class="edge">
<title>Q3&#45;&gt;A3</title>
<path fill="none" stroke="black" d="M1247.21,-126.11C1247.21,-117.02 1247.21,-105.39 1247.21,-93.84"/>
<polygon fill="black" stroke="black" points="1250.71,-93.93 1247.21,-83.93 1243.71,-93.93 1250.71,-93.93"/>
</g>
</g>
</svg>
